<svg width="512" height="512" viewBox="0 0 512 512" fill="none" xmlns="http://www.w3.org/2000/svg">
<g clip-path="url(#clip0_286_19)">
<rect width="512" height="512" fill="white"/>
<path d="M256 297.668C316.475 297.668 365.5 248.644 365.5 188.168C365.5 127.693 316.475 78.6683 256 78.6683C195.525 78.6683 146.5 127.693 146.5 188.168C146.5 248.644 195.525 297.668 256 297.668Z" fill="#292945" stroke="#292945" stroke-width="9.23906" stroke-linecap="round" stroke-linejoin="round"/>
<path d="M455.68 525.298C455.68 472.34 434.643 421.551 397.195 384.103C359.748 346.656 308.959 325.618 256 325.618C203.042 325.618 152.252 346.656 114.805 384.103C77.358 421.551 56.3203 472.34 56.3203 525.298" fill="#292945"/>
<path d="M455.68 525.298C455.68 472.34 434.643 421.551 397.195 384.103C359.748 346.656 308.959 325.618 256 325.618C203.042 325.618 152.252 346.656 114.805 384.103C77.358 421.551 56.3203 472.34 56.3203 525.298" stroke="#292945" stroke-width="10.53" stroke-linecap="round" stroke-linejoin="round"/>
</g>
<defs>
<clipPath id="clip0_286_19">
<rect width="512" height="512" fill="white"/>
</clipPath>
</defs>
</svg>
