<svg width="512" height="512" viewBox="0 0 512 512" fill="none" xmlns="http://www.w3.org/2000/svg">
<g clip-path="url(#clip0_313_31)">
<rect width="512" height="512" fill="white"/>
<path d="M425.737 296.032C470.481 296.032 506.753 259.76 506.753 215.016C506.753 170.272 470.481 134 425.737 134C380.993 134 344.721 170.272 344.721 215.016C344.721 259.76 380.993 296.032 425.737 296.032Z" fill="#292945" stroke="white" stroke-width="6.83571" stroke-linecap="round" stroke-linejoin="round"/>
<path d="M573.475 464.448C573.475 425.266 557.909 387.688 530.203 359.982C502.497 332.276 464.92 316.711 425.737 316.711C386.555 316.711 348.977 332.276 321.271 359.982C293.565 387.688 278 425.266 278 464.448" fill="#292945"/>
<path d="M573.475 464.448C573.475 425.266 557.909 387.688 530.203 359.982C502.497 332.276 464.92 316.711 425.737 316.711C386.555 316.711 348.977 332.276 321.271 359.982C293.565 387.688 278 425.266 278 464.448" stroke="white" stroke-width="7.79083" stroke-linecap="round" stroke-linejoin="round"/>
<path d="M93.7375 296.032C138.481 296.032 174.753 259.76 174.753 215.016C174.753 170.272 138.481 134 93.7375 134C48.9937 134 12.7217 170.272 12.7217 215.016C12.7217 259.76 48.9937 296.032 93.7375 296.032Z" fill="#292945" stroke="white" stroke-width="6.83571" stroke-linecap="round" stroke-linejoin="round"/>
<path d="M241.475 464.448C241.475 425.266 225.909 387.688 198.203 359.982C170.497 332.276 132.92 316.711 93.7373 316.711C54.5549 316.711 16.9774 332.276 -10.7288 359.982C-38.4349 387.688 -54 425.266 -54 464.448" fill="#292945"/>
<path d="M241.475 464.448C241.475 425.266 225.909 387.688 198.203 359.982C170.497 332.276 132.92 316.711 93.7373 316.711C54.5549 316.711 16.9774 332.276 -10.7288 359.982C-38.4349 387.688 -54 425.266 -54 464.448" stroke="white" stroke-width="7.79083" stroke-linecap="round" stroke-linejoin="round"/>
<path d="M259.219 329.455C305.058 329.455 342.219 292.295 342.219 246.455C342.219 200.616 305.058 163.455 259.219 163.455C213.379 163.455 176.219 200.616 176.219 246.455C176.219 292.295 213.379 329.455 259.219 329.455Z" fill="#292945" stroke="white" stroke-width="1.77625" stroke-linecap="round" stroke-linejoin="round"/>
<path d="M429.83 510.921C429.83 465.722 411.874 422.375 379.914 390.415C347.954 358.454 304.607 340.499 259.408 340.499C214.21 340.499 170.862 358.454 138.902 390.415C106.942 422.375 88.9868 465.722 88.9868 510.921" fill="#292945"/>
<path d="M429.83 510.921C429.83 465.722 411.874 422.375 379.914 390.415C347.954 358.454 304.607 340.499 259.408 340.499C214.21 340.499 170.862 358.454 138.902 390.415C106.942 422.375 88.9868 465.722 88.9868 510.921" stroke="white" stroke-width="11.6329" stroke-linecap="round" stroke-linejoin="round"/>
</g>
<defs>
<clipPath id="clip0_313_31">
<rect width="512" height="512" fill="white"/>
</clipPath>
</defs>
</svg>
